<mxfile host="www.draw.io" modified="2019-12-01T22:05:23.963Z" agent="Mozilla/5.0 (Windows NT 10.0; Win64; x64) AppleWebKit/537.36 (KHTML, like Gecko) Chrome/78.0.3904.108 Safari/537.36" etag="3VnoXfvLDDDUnzfKf4sY" version="12.3.3" type="github" pages="1">
  <diagram name="Page-1" id="74e2e168-ea6b-b213-b513-2b3c1d86103e">
    <mxGraphModel dx="1422" dy="739" grid="1" gridSize="10" guides="1" tooltips="1" connect="1" arrows="1" fold="1" page="1" pageScale="1" pageWidth="1169" pageHeight="827" background="#ffffff" math="0" shadow="0">
      <root>
        <mxCell id="0"/>
        <mxCell id="1" parent="0"/>
        <mxCell id="77e6c97f196da883-1" value="Planogram Guru" style="swimlane;html=1;childLayout=stackLayout;startSize=20;rounded=0;shadow=0;labelBackgroundColor=none;strokeWidth=1;fontFamily=Verdana;fontSize=8;align=center;fillColor=#F8CECC;strokeColor=#b85450;" parent="1" vertex="1">
          <mxGeometry x="70" y="40" width="960" height="750" as="geometry">
            <mxRectangle x="70" y="40" width="110" height="20" as="alternateBounds"/>
          </mxGeometry>
        </mxCell>
        <mxCell id="77e6c97f196da883-2" value="Retailer/CPG" style="swimlane;html=1;startSize=20;" parent="77e6c97f196da883-1" vertex="1">
          <mxGeometry y="20" width="160" height="730" as="geometry">
            <mxRectangle y="20" width="30" height="730" as="alternateBounds"/>
          </mxGeometry>
        </mxCell>
        <mxCell id="77e6c97f196da883-8" value="&lt;b&gt;Business Requirement&lt;/b&gt;&lt;br&gt;Are the products we planned in the &#39;Planogram&#39; being placed in the correct positions in -store?" style="rounded=1;whiteSpace=wrap;html=1;shadow=0;labelBackgroundColor=none;strokeWidth=1;fontFamily=Verdana;fontSize=8;align=center;" parent="77e6c97f196da883-2" vertex="1">
          <mxGeometry x="30" y="140" width="100" height="75" as="geometry"/>
        </mxCell>
        <mxCell id="zSUPZNak-3pxzVC9CyPx-29" value="&lt;b&gt;Business Value&lt;/b&gt;&lt;br&gt;User compares &#39;planned&#39; versus &#39;captured&#39;" style="rounded=1;whiteSpace=wrap;html=1;shadow=0;labelBackgroundColor=none;strokeWidth=1;fontFamily=Verdana;fontSize=8;align=center;" parent="77e6c97f196da883-2" vertex="1">
          <mxGeometry x="30" y="30" width="100" height="75" as="geometry"/>
        </mxCell>
        <mxCell id="aW8ZHzQVF4yfSd1X79to-6" value="&lt;span style=&quot;background-color: rgb(255 , 255 , 255)&quot;&gt;Example PowerBI dashboard to be defined&lt;/span&gt;" style="shape=callout;whiteSpace=wrap;html=1;perimeter=calloutPerimeter;fillColor=#f8cecc;strokeColor=#b85450;" vertex="1" parent="77e6c97f196da883-2">
          <mxGeometry x="20" y="550" width="120" height="80" as="geometry"/>
        </mxCell>
        <mxCell id="77e6c97f196da883-26" style="edgeStyle=orthogonalEdgeStyle;rounded=1;html=1;labelBackgroundColor=none;startArrow=none;startFill=0;startSize=5;endArrow=classicThin;endFill=1;endSize=5;jettySize=auto;orthogonalLoop=1;strokeWidth=1;fontFamily=Verdana;fontSize=8" parent="77e6c97f196da883-1" source="77e6c97f196da883-8" target="77e6c97f196da883-11" edge="1">
          <mxGeometry relative="1" as="geometry"/>
        </mxCell>
        <mxCell id="77e6c97f196da883-28" style="edgeStyle=orthogonalEdgeStyle;rounded=1;html=1;labelBackgroundColor=none;startArrow=none;startFill=0;startSize=5;endArrow=classicThin;endFill=1;endSize=5;jettySize=auto;orthogonalLoop=1;strokeWidth=1;fontFamily=Verdana;fontSize=8" parent="77e6c97f196da883-1" source="77e6c97f196da883-9" target="77e6c97f196da883-12" edge="1">
          <mxGeometry relative="1" as="geometry">
            <Array as="points">
              <mxPoint x="240" y="350"/>
              <mxPoint x="400" y="350"/>
            </Array>
          </mxGeometry>
        </mxCell>
        <mxCell id="77e6c97f196da883-33" style="edgeStyle=orthogonalEdgeStyle;rounded=1;html=1;labelBackgroundColor=none;startArrow=none;startFill=0;startSize=5;endArrow=classicThin;endFill=1;endSize=5;jettySize=auto;orthogonalLoop=1;strokeWidth=1;fontFamily=Verdana;fontSize=8;exitX=0.554;exitY=-0.029;exitDx=0;exitDy=0;exitPerimeter=0;" parent="77e6c97f196da883-1" source="77e6c97f196da883-12" target="77e6c97f196da883-15" edge="1">
          <mxGeometry relative="1" as="geometry">
            <mxPoint x="440" y="290" as="sourcePoint"/>
            <Array as="points">
              <mxPoint x="405" y="290"/>
            </Array>
          </mxGeometry>
        </mxCell>
        <mxCell id="77e6c97f196da883-3" value="Planogram Guru Website" style="swimlane;html=1;startSize=27;" parent="77e6c97f196da883-1" vertex="1">
          <mxGeometry x="160" y="20" width="160" height="730" as="geometry"/>
        </mxCell>
        <mxCell id="zSUPZNak-3pxzVC9CyPx-1" value="" style="edgeStyle=orthogonalEdgeStyle;rounded=0;orthogonalLoop=1;jettySize=auto;html=1;" parent="77e6c97f196da883-3" source="77e6c97f196da883-11" target="77e6c97f196da883-9" edge="1">
          <mxGeometry relative="1" as="geometry"/>
        </mxCell>
        <mxCell id="77e6c97f196da883-11" value="Business User visits website&amp;nbsp; and selects &#39;Create Compliance Project&#39;" style="rounded=1;whiteSpace=wrap;html=1;shadow=0;labelBackgroundColor=none;strokeWidth=1;fontFamily=Verdana;fontSize=8;align=center;" parent="77e6c97f196da883-3" vertex="1">
          <mxGeometry x="30" y="110" width="100" height="60" as="geometry"/>
        </mxCell>
        <mxCell id="zSUPZNak-3pxzVC9CyPx-3" value="" style="edgeStyle=orthogonalEdgeStyle;rounded=0;orthogonalLoop=1;jettySize=auto;html=1;" parent="77e6c97f196da883-3" source="77e6c97f196da883-9" target="zSUPZNak-3pxzVC9CyPx-2" edge="1">
          <mxGeometry relative="1" as="geometry"/>
        </mxCell>
        <mxCell id="77e6c97f196da883-9" value="User completes the Form, answering questions related to the Compliance Project, Configuration questions for the project." style="rounded=1;whiteSpace=wrap;html=1;shadow=0;labelBackgroundColor=none;strokeWidth=1;fontFamily=Verdana;fontSize=8;align=center;" parent="77e6c97f196da883-3" vertex="1">
          <mxGeometry x="30" y="180" width="100" height="60" as="geometry"/>
        </mxCell>
        <mxCell id="zSUPZNak-3pxzVC9CyPx-2" value="User is then prompted to upload Planogram File (Phase 1, .XML File Only)" style="rounded=1;whiteSpace=wrap;html=1;shadow=0;labelBackgroundColor=none;strokeWidth=1;fontFamily=Verdana;fontSize=8;align=center;" parent="77e6c97f196da883-3" vertex="1">
          <mxGeometry x="30" y="260" width="100" height="60" as="geometry"/>
        </mxCell>
        <mxCell id="zSUPZNak-3pxzVC9CyPx-20" value="PowerBi Section of website" style="rounded=1;whiteSpace=wrap;html=1;shadow=0;labelBackgroundColor=none;strokeWidth=1;fontFamily=Verdana;fontSize=8;align=center;" parent="77e6c97f196da883-3" vertex="1">
          <mxGeometry x="30" y="40" width="100" height="60" as="geometry"/>
        </mxCell>
        <mxCell id="aW8ZHzQVF4yfSd1X79to-1" value="&lt;span style=&quot;background-color: rgb(255 , 255 , 255)&quot;&gt;TASK ON JUSTYN: List of questions to be created&lt;/span&gt;" style="shape=callout;whiteSpace=wrap;html=1;perimeter=calloutPerimeter;fillColor=#f8cecc;strokeColor=#b85450;" vertex="1" parent="77e6c97f196da883-3">
          <mxGeometry x="20" y="570" width="120" height="80" as="geometry"/>
        </mxCell>
        <mxCell id="77e6c97f196da883-4" value="Integration between &lt;br&gt;Website &amp;amp; Database" style="swimlane;html=1;startSize=37;" parent="77e6c97f196da883-1" vertex="1">
          <mxGeometry x="320" y="20" width="160" height="730" as="geometry"/>
        </mxCell>
        <mxCell id="77e6c97f196da883-12" value="User profile, project settings, and uploaded planogram file are then consumed or pushed to the database.&amp;nbsp;" style="rounded=1;whiteSpace=wrap;html=1;shadow=0;labelBackgroundColor=none;strokeWidth=1;fontFamily=Verdana;fontSize=8;align=center;" parent="77e6c97f196da883-4" vertex="1">
          <mxGeometry x="30" y="360" width="100" height="60" as="geometry"/>
        </mxCell>
        <mxCell id="zSUPZNak-3pxzVC9CyPx-5" value="" style="edgeStyle=orthogonalEdgeStyle;rounded=0;orthogonalLoop=1;jettySize=auto;html=1;" parent="77e6c97f196da883-4" source="zSUPZNak-3pxzVC9CyPx-4" target="77e6c97f196da883-12" edge="1">
          <mxGeometry relative="1" as="geometry"/>
        </mxCell>
        <mxCell id="zSUPZNak-3pxzVC9CyPx-4" value="A project ID is generated and provided to the User" style="rounded=1;whiteSpace=wrap;html=1;shadow=0;labelBackgroundColor=none;strokeWidth=1;fontFamily=Verdana;fontSize=8;align=center;" parent="77e6c97f196da883-4" vertex="1">
          <mxGeometry x="30" y="440" width="100" height="60" as="geometry"/>
        </mxCell>
        <mxCell id="aW8ZHzQVF4yfSd1X79to-2" value="&lt;span style=&quot;background-color: rgb(255 , 255 , 255)&quot;&gt;TASK ON JUSTYN: Example .xml File to be supplied&lt;/span&gt;" style="shape=callout;whiteSpace=wrap;html=1;perimeter=calloutPerimeter;fillColor=#f8cecc;strokeColor=#b85450;" vertex="1" parent="77e6c97f196da883-4">
          <mxGeometry x="20" y="570" width="120" height="80" as="geometry"/>
        </mxCell>
        <mxCell id="77e6c97f196da883-5" value="Database" style="swimlane;html=1;startSize=20;" parent="77e6c97f196da883-1" vertex="1">
          <mxGeometry x="480" y="20" width="160" height="730" as="geometry"/>
        </mxCell>
        <mxCell id="zSUPZNak-3pxzVC9CyPx-24" value="" style="edgeStyle=orthogonalEdgeStyle;rounded=0;orthogonalLoop=1;jettySize=auto;html=1;" parent="77e6c97f196da883-5" source="77e6c97f196da883-15" edge="1">
          <mxGeometry relative="1" as="geometry">
            <mxPoint x="-190" y="60" as="targetPoint"/>
            <Array as="points">
              <mxPoint x="80" y="60"/>
            </Array>
          </mxGeometry>
        </mxCell>
        <mxCell id="77e6c97f196da883-15" value="Database Stores the project configuration settings and .xml Planogram file in a simplified format. i.e. Product, position, Shelf" style="rounded=1;whiteSpace=wrap;html=1;shadow=0;labelBackgroundColor=none;strokeWidth=1;fontFamily=Verdana;fontSize=8;align=center;" parent="77e6c97f196da883-5" vertex="1">
          <mxGeometry x="30" y="240" width="100" height="60" as="geometry"/>
        </mxCell>
        <mxCell id="zSUPZNak-3pxzVC9CyPx-17" value="Captured Project stored in Database.&amp;nbsp;" style="rounded=1;whiteSpace=wrap;html=1;shadow=0;labelBackgroundColor=none;strokeWidth=1;fontFamily=Verdana;fontSize=8;align=center;" parent="77e6c97f196da883-5" vertex="1">
          <mxGeometry x="30" y="310" width="100" height="60" as="geometry"/>
        </mxCell>
        <mxCell id="aW8ZHzQVF4yfSd1X79to-3" value="&lt;span style=&quot;background-color: rgb(255 , 255 , 255)&quot;&gt;TASK ON JUSTYN: Understand and collaborate on Database design/structure&lt;/span&gt;" style="shape=callout;whiteSpace=wrap;html=1;perimeter=calloutPerimeter;fillColor=#f8cecc;strokeColor=#b85450;" vertex="1" parent="77e6c97f196da883-5">
          <mxGeometry x="20" y="490" width="120" height="110" as="geometry"/>
        </mxCell>
        <mxCell id="aW8ZHzQVF4yfSd1X79to-5" value="&lt;span style=&quot;background-color: rgb(255 , 255 , 255)&quot;&gt;ERD to be built&lt;/span&gt;" style="shape=callout;whiteSpace=wrap;html=1;perimeter=calloutPerimeter;fillColor=#f8cecc;strokeColor=#b85450;" vertex="1" parent="77e6c97f196da883-5">
          <mxGeometry x="20" y="630" width="120" height="80" as="geometry"/>
        </mxCell>
        <mxCell id="77e6c97f196da883-6" value="Integration between &lt;br&gt;Database &amp;amp; &lt;br&gt;Mobile Application" style="swimlane;html=1;startSize=58;" parent="77e6c97f196da883-1" vertex="1">
          <mxGeometry x="640" y="20" width="160" height="730" as="geometry"/>
        </mxCell>
        <mxCell id="77e6c97f196da883-7" value="Mobile Application" style="swimlane;html=1;startSize=20;" parent="77e6c97f196da883-1" vertex="1">
          <mxGeometry x="800" y="20" width="160" height="730" as="geometry"/>
        </mxCell>
        <mxCell id="zSUPZNak-3pxzVC9CyPx-9" value="" style="edgeStyle=orthogonalEdgeStyle;rounded=0;orthogonalLoop=1;jettySize=auto;html=1;" parent="77e6c97f196da883-7" source="77e6c97f196da883-18" target="zSUPZNak-3pxzVC9CyPx-8" edge="1">
          <mxGeometry relative="1" as="geometry"/>
        </mxCell>
        <mxCell id="77e6c97f196da883-18" value="User logs on to the mobile application, and enters the project ID" style="rounded=1;whiteSpace=wrap;html=1;shadow=0;labelBackgroundColor=none;strokeWidth=1;fontFamily=Verdana;fontSize=8;align=center;" parent="77e6c97f196da883-7" vertex="1">
          <mxGeometry x="20" y="120" width="100" height="60" as="geometry"/>
        </mxCell>
        <mxCell id="zSUPZNak-3pxzVC9CyPx-11" value="" style="edgeStyle=orthogonalEdgeStyle;rounded=0;orthogonalLoop=1;jettySize=auto;html=1;" parent="77e6c97f196da883-7" source="zSUPZNak-3pxzVC9CyPx-8" target="zSUPZNak-3pxzVC9CyPx-10" edge="1">
          <mxGeometry relative="1" as="geometry"/>
        </mxCell>
        <mxCell id="zSUPZNak-3pxzVC9CyPx-8" value="Project Configuration is downloaded, from the settings entered by user in website" style="rounded=1;whiteSpace=wrap;html=1;shadow=0;labelBackgroundColor=none;strokeWidth=1;fontFamily=Verdana;fontSize=8;align=center;" parent="77e6c97f196da883-7" vertex="1">
          <mxGeometry x="20" y="260" width="100" height="60" as="geometry"/>
        </mxCell>
        <mxCell id="zSUPZNak-3pxzVC9CyPx-13" value="" style="edgeStyle=orthogonalEdgeStyle;rounded=0;orthogonalLoop=1;jettySize=auto;html=1;" parent="77e6c97f196da883-7" source="zSUPZNak-3pxzVC9CyPx-10" target="zSUPZNak-3pxzVC9CyPx-12" edge="1">
          <mxGeometry relative="1" as="geometry"/>
        </mxCell>
        <mxCell id="zSUPZNak-3pxzVC9CyPx-10" value="Mobile Application User then starts &#39;Capture Project&#39;" style="rounded=1;whiteSpace=wrap;html=1;shadow=0;labelBackgroundColor=none;strokeWidth=1;fontFamily=Verdana;fontSize=8;align=center;" parent="77e6c97f196da883-7" vertex="1">
          <mxGeometry x="20" y="350" width="100" height="60" as="geometry"/>
        </mxCell>
        <mxCell id="zSUPZNak-3pxzVC9CyPx-15" value="" style="edgeStyle=orthogonalEdgeStyle;rounded=0;orthogonalLoop=1;jettySize=auto;html=1;" parent="77e6c97f196da883-7" source="zSUPZNak-3pxzVC9CyPx-12" target="zSUPZNak-3pxzVC9CyPx-14" edge="1">
          <mxGeometry relative="1" as="geometry"/>
        </mxCell>
        <mxCell id="zSUPZNak-3pxzVC9CyPx-12" value="User follows on screen prompts to capture product positional information" style="rounded=1;whiteSpace=wrap;html=1;shadow=0;labelBackgroundColor=none;strokeWidth=1;fontFamily=Verdana;fontSize=8;align=center;" parent="77e6c97f196da883-7" vertex="1">
          <mxGeometry x="20" y="440" width="100" height="60" as="geometry"/>
        </mxCell>
        <mxCell id="zSUPZNak-3pxzVC9CyPx-14" value="User then saves the &#39;Capture Project&#39; and submits it back to the database" style="rounded=1;whiteSpace=wrap;html=1;shadow=0;labelBackgroundColor=none;strokeWidth=1;fontFamily=Verdana;fontSize=8;align=center;" parent="77e6c97f196da883-7" vertex="1">
          <mxGeometry x="20" y="530" width="100" height="60" as="geometry"/>
        </mxCell>
        <mxCell id="aW8ZHzQVF4yfSd1X79to-4" value="&lt;span style=&quot;background-color: rgb(255 , 255 , 255)&quot;&gt;TASK ON JUSTYN: Basic design/function of Mobile Application to be defined&lt;/span&gt;" style="shape=callout;whiteSpace=wrap;html=1;perimeter=calloutPerimeter;fillColor=#f8cecc;strokeColor=#b85450;" vertex="1" parent="77e6c97f196da883-7">
          <mxGeometry x="20" y="600" width="120" height="100" as="geometry"/>
        </mxCell>
        <mxCell id="zSUPZNak-3pxzVC9CyPx-6" value="" style="edgeStyle=orthogonalEdgeStyle;rounded=0;orthogonalLoop=1;jettySize=auto;html=1;" parent="77e6c97f196da883-1" source="zSUPZNak-3pxzVC9CyPx-4" edge="1">
          <mxGeometry relative="1" as="geometry">
            <mxPoint x="188" y="160" as="targetPoint"/>
          </mxGeometry>
        </mxCell>
        <mxCell id="zSUPZNak-3pxzVC9CyPx-7" value="" style="edgeStyle=orthogonalEdgeStyle;rounded=0;orthogonalLoop=1;jettySize=auto;html=1;exitX=1;exitY=0.5;exitDx=0;exitDy=0;" parent="77e6c97f196da883-1" source="77e6c97f196da883-15" target="77e6c97f196da883-18" edge="1">
          <mxGeometry relative="1" as="geometry">
            <Array as="points">
              <mxPoint x="720" y="290"/>
              <mxPoint x="720" y="170"/>
            </Array>
          </mxGeometry>
        </mxCell>
        <mxCell id="zSUPZNak-3pxzVC9CyPx-16" value="" style="edgeStyle=orthogonalEdgeStyle;rounded=0;orthogonalLoop=1;jettySize=auto;html=1;" parent="77e6c97f196da883-1" source="zSUPZNak-3pxzVC9CyPx-14" edge="1">
          <mxGeometry relative="1" as="geometry">
            <mxPoint x="560" y="390" as="targetPoint"/>
          </mxGeometry>
        </mxCell>
        <mxCell id="zSUPZNak-3pxzVC9CyPx-27" value="" style="edgeStyle=orthogonalEdgeStyle;rounded=0;orthogonalLoop=1;jettySize=auto;html=1;exitX=0;exitY=0.5;exitDx=0;exitDy=0;" parent="77e6c97f196da883-1" source="zSUPZNak-3pxzVC9CyPx-17" edge="1">
          <mxGeometry relative="1" as="geometry">
            <mxPoint x="290" y="80" as="targetPoint"/>
            <Array as="points">
              <mxPoint x="510" y="320"/>
              <mxPoint x="370" y="320"/>
              <mxPoint x="370" y="210"/>
              <mxPoint x="370" y="80"/>
            </Array>
          </mxGeometry>
        </mxCell>
        <mxCell id="zSUPZNak-3pxzVC9CyPx-30" value="" style="edgeStyle=orthogonalEdgeStyle;rounded=0;orthogonalLoop=1;jettySize=auto;html=1;" parent="77e6c97f196da883-1" source="zSUPZNak-3pxzVC9CyPx-20" target="zSUPZNak-3pxzVC9CyPx-29" edge="1">
          <mxGeometry relative="1" as="geometry">
            <Array as="points">
              <mxPoint x="150" y="80"/>
              <mxPoint x="150" y="80"/>
            </Array>
          </mxGeometry>
        </mxCell>
        <mxCell id="aW8ZHzQVF4yfSd1X79to-7" value="" style="whiteSpace=wrap;html=1;aspect=fixed;fillColor=#F8CECC;" vertex="1" parent="1">
          <mxGeometry x="70" y="810" width="80" height="80" as="geometry"/>
        </mxCell>
      </root>
    </mxGraphModel>
  </diagram>
</mxfile>
